HIERARCHY
ROOT Root
{
	OFFSET 0.0000 0.0000 0.0000
	CHANNELS 6 Xposition Yposition Zposition Zrotation Xrotation Yrotation
	JOINT Spine01
	{
		OFFSET 0.0000 -16.7008 118.8322
		CHANNELS 6 Xposition Yposition Zposition Zrotation Xrotation Yrotation
		JOINT Spine02
		{
			OFFSET 0.0000 11.8586 169.5859
			CHANNELS 6 Xposition Yposition Zposition Zrotation Xrotation Yrotation
			JOINT LeftShoulder
			{
				OFFSET 83.0000 21.5583 44.2746
				CHANNELS 6 Xposition Yposition Zposition Zrotation Xrotation Yrotation
				JOINT LeftArm
				{
					OFFSET 0.0000 -111.4369 141.3570
					CHANNELS 6 Xposition Yposition Zposition Zrotation Xrotation Yrotation
					JOINT LeftForeArm
					{
						OFFSET 0.0000 -172.4081 -79.8464
						CHANNELS 6 Xposition Yposition Zposition Zrotation Xrotation Yrotation
						JOINT LeftWrist
						{
							OFFSET 0.0000 -209.8784 7.1457
							CHANNELS 6 Xposition Yposition Zposition Zrotation Xrotation Yrotation
							JOINT LeftHand
							{
								OFFSET 0.0000 -64.9257 26.1658
								CHANNELS 6 Xposition Yposition Zposition Zrotation Xrotation Yrotation
								End Site
								{
									OFFSET 0.0000 -20.5704 56.3636
								}
							}
						}
					}
				}
			}
			JOINT RightShoulder
			{
				OFFSET -83.0000 21.5583 44.2746
				CHANNELS 6 Xposition Yposition Zposition Zrotation Xrotation Yrotation
				JOINT RightArm
				{
					OFFSET 0.0000 -111.4369 141.3570
					CHANNELS 6 Xposition Yposition Zposition Zrotation Xrotation Yrotation
					JOINT RightForeArm
					{
						OFFSET 0.0000 -172.4081 -79.8464
						CHANNELS 6 Xposition Yposition Zposition Zrotation Xrotation Yrotation
						JOINT RightWrist
						{
							OFFSET 0.0000 -209.8784 7.1457
							CHANNELS 6 Xposition Yposition Zposition Zrotation Xrotation Yrotation
							JOINT RightHand
							{
								OFFSET 0.0000 -64.9257 26.1658
								CHANNELS 6 Xposition Yposition Zposition Zrotation Xrotation Yrotation
								End Site
								{
									OFFSET 0.0000 -20.5704 56.3636
								}
							}
						}
					}
				}
			}
			JOINT Neck01
			{
				OFFSET 0.0000 4.1879 119.9269
				CHANNELS 6 Xposition Yposition Zposition Zrotation Xrotation Yrotation
				JOINT Neck02
				{
					OFFSET 0.0000 -14.3102 88.8550
					CHANNELS 6 Xposition Yposition Zposition Zrotation Xrotation Yrotation
					JOINT Neck03
					{
						OFFSET 0.0000 72.0997 53.8668
						CHANNELS 6 Xposition Yposition Zposition Zrotation Xrotation Yrotation
						JOINT Neck04
						{
							OFFSET 0.0000 88.9597 -13.6445
							CHANNELS 6 Xposition Yposition Zposition Zrotation Xrotation Yrotation
							JOINT Head
							{
								OFFSET 0.0000 19.3735 72.4546
								CHANNELS 6 Xposition Yposition Zposition Zrotation Xrotation Yrotation
								End Site
								{
									OFFSET 0.0000 -28.2512 167.6361
								}
								JOINT LeftEar
								{
									OFFSET 45.0000 62.4894 -9.7509
									CHANNELS 6 Xposition Yposition Zposition Zrotation Xrotation Yrotation
									End Site
									{
										OFFSET 23.1256 59.6428 28.4242
									}
								}
								JOINT RightEar
								{
									OFFSET -45.0000 62.4894 -9.7509
									CHANNELS 6 Xposition Yposition Zposition Zrotation Xrotation Yrotation
									End Site
									{
										OFFSET -23.1256 59.6428 28.4242
									}
								}
							}
						}
					}
				}
			}
		}
	}
	JOINT LeftLeg
	{
		OFFSET 75.0000 -65.3041 -110.1607
		CHANNELS 6 Xposition Yposition Zposition Zrotation Xrotation Yrotation
		JOINT LeftLowerLeg
		{
			OFFSET 0.0000 -209.4885 14.6489
			CHANNELS 6 Xposition Yposition Zposition Zrotation Xrotation Yrotation
			JOINT LeftAnkle
			{
				OFFSET 0.0000 -168.5298 -141.4133
				CHANNELS 6 Xposition Yposition Zposition Zrotation Xrotation Yrotation
				JOINT LeftFoot
				{
					OFFSET 0.0000 -96.5926 25.8819
					CHANNELS 6 Xposition Yposition Zposition Zrotation Xrotation Yrotation
					End Site
					{
						OFFSET 0.0000 -19.5341 56.7311
					}
				}
			}
		}
	}
	JOINT RightLeg
	{
		OFFSET -75.0000 -65.3041 -110.1607
		CHANNELS 6 Xposition Yposition Zposition Zrotation Xrotation Yrotation
		JOINT RightLowerLeg
		{
			OFFSET 0.0000 -209.4885 14.6489
			CHANNELS 6 Xposition Yposition Zposition Zrotation Xrotation Yrotation
			JOINT RightAnkle
			{
				OFFSET 0.0000 -168.5298 -141.4133
				CHANNELS 6 Xposition Yposition Zposition Zrotation Xrotation Yrotation
				JOINT RightFoot
				{
					OFFSET 0.0000 -96.5926 25.8819
					CHANNELS 6 Xposition Yposition Zposition Zrotation Xrotation Yrotation
					End Site
					{
						OFFSET 0.0000 -19.5341 56.7311
					}
				}
			}
		}
	}
	JOINT TailBase
	{
		OFFSET 0.0000 -22.9100 -124.3991
		CHANNELS 6 Xposition Yposition Zposition Zrotation Xrotation Yrotation
		JOINT Tail1
		{
			OFFSET 0.0000 0.0000 -67.0000
			CHANNELS 6 Xposition Yposition Zposition Zrotation Xrotation Yrotation
			JOINT Tail2
			{
				OFFSET 0.0000 0.0000 -67.0000
				CHANNELS 6 Xposition Yposition Zposition Zrotation Xrotation Yrotation
				JOINT Tail3
				{
					OFFSET 0.0000 0.0000 -67.0000
					CHANNELS 6 Xposition Yposition Zposition Zrotation Xrotation Yrotation
					JOINT Tail4
					{
						OFFSET 0.0000 0.0000 -67.0000
						CHANNELS 6 Xposition Yposition Zposition Zrotation Xrotation Yrotation
						JOINT Tail5
						{
							OFFSET 0.0000 0.0000 -67.0000
							CHANNELS 6 Xposition Yposition Zposition Zrotation Xrotation Yrotation
							JOINT Tail6
							{
								OFFSET 0.0000 0.0000 -67.0000
								CHANNELS 6 Xposition Yposition Zposition Zrotation Xrotation Yrotation
								End Site
								{
									OFFSET 0.0000 0.0000 -67.0000
								}
							}
						}
					}
				}
			}
		}
	}
}
MOTION
Frames: 5
Frame Time: 0.008342
-26.6722 573.9730 -991.5110 -4.3025 12.8909 -59.7665 0.0000 -16.7008 118.8322 -0.5842 0.5129 4.9242 0.0000 11.8586 169.5859 -0.1099 1.6959 1.4609 49.7665 21.7612 18.8184 8.9137 -10.2646 12.6613 0.0000 -111.4369 141.3570 -0.6243 -0.0664 -9.9891 0.0000 -172.4081 -79.8464 0.3363 -17.9421 -9.3369 0.0000 -209.8784 7.1457 11.4012 9.6042 0.3933 0.0000 -64.9257 26.1658 -10.3811 3.2137 4.4157 -74.5229 18.6612 47.1171 1.0962 -1.5645 -11.5272 0.0000 -111.4369 141.3570 -4.6739 4.5138 7.2136 0.0000 -172.4081 -79.8464 -0.1702 13.9321 4.8983 0.0000 -209.8784 7.1457 1.1715 6.0418 0.0403 0.0000 -64.9257 26.1658 12.1497 1.7320 -4.8771 -0.0000 4.1879 119.9269 -3.0292 -19.3181 -13.1795 0.0000 -14.3102 88.8550 5.7811 4.7145 10.3662 0.0000 72.0997 53.8668 -6.3086 0.0870 -5.3295 0.0000 88.9597 -13.6445 2.2390 9.9883 -8.9480 0.0000 19.3735 72.4546 3.2860 -25.0367 -29.6529 54.2935 60.8171 -5.7847 -13.3924 6.7706 1.4487 -34.4270 71.5029 -4.0269 1.4881 4.6391 6.2312 75.0000 -65.3041 -110.1607 11.5073 -4.4146 -0.8457 0.0000 -209.4885 14.6489 -0.0000 23.6172 0.0000 -0.0000 -168.5298 -141.4133 -0.0000 -8.5896 -0.0000 0.0000 -96.5926 25.8819 0.2741 50.2191 -0.2710 -75.0000 -65.3041 -110.1607 9.7867 -6.7977 -21.7337 -0.0000 -209.4885 14.6489 0.0000 -9.4162 0.0000 0.0000 -168.5298 -141.4133 0.0000 11.1406 0.0000 -0.0000 -96.5926 25.8819 -4.1612 -1.6826 1.3125 0.0000 -22.9100 -124.3991 1.1620 -28.8466 1.9184 0.0000 0.0000 -67.0000 -3.9137 -21.6726 -10.4951 0.0000 0.0000 -67.0000 0.0322 -2.7876 0.6628 0.0000 0.0000 -67.0000 -0.0421 3.1580 0.7639 0.0000 0.0000 -67.0000 -2.9616 18.1673 9.4211 -0.0000 -0.0000 -67.0000 -14.2438 28.8880 27.7205 0.0000 0.0000 -67.0000 -3.2023 24.1414 7.7896 
-34.0345 572.7140 -985.3810 -4.4868 12.6259 -58.8472 0.0000 -16.7008 118.8322 -0.0101 0.3819 4.8169 -0.0000 11.8586 169.5859 -0.2680 1.9739 1.1609 51.3963 21.8051 18.3760 9.2063 -10.3236 12.2149 0.0000 -111.4369 141.3570 -2.1439 1.5733 -9.8894 0.0000 -172.4081 -79.8464 0.3148 -17.7428 -8.7449 0.0000 -209.8784 7.1457 11.0872 9.4876 0.3825 -0.0000 -64.9257 26.1658 -9.7848 2.2802 3.9988 -73.2508 19.8234 46.3146 -0.2646 -2.5565 -10.5079 0.0000 -111.4369 141.3570 -4.6644 6.3972 5.7834 0.0000 -172.4081 -79.8464 -0.2231 12.7158 6.4540 0.0000 -209.8784 7.1457 -1.1549 9.7113 -0.0401 0.0000 -64.9257 26.1658 14.0770 10.2059 -7.7064 -0.0000 4.1879 119.9269 -3.8395 -19.5408 -12.6965 0.0000 -14.3102 88.8550 5.7728 5.3122 9.9842 -0.0000 72.0997 53.8668 -5.9639 0.1829 -5.3654 0.0000 88.9597 -13.6445 2.0783 9.1498 -8.8853 0.0000 19.3735 72.4546 3.5887 -24.7911 -29.1177 54.3248 60.6829 -5.8417 -12.5570 6.9921 1.1204 -34.7318 71.5560 -3.7620 1.7638 4.7199 6.2184 75.0000 -65.3041 -110.1607 11.2768 -6.4194 0.2550 0.0000 -209.4885 14.6489 0.0000 25.4344 -0.0000 0.0000 -168.5298 -141.4133 0.0000 -14.0181 -0.0000 0.0000 -96.5926 25.8819 -0.6112 53.0587 0.6150 -75.0000 -65.3041 -110.1607 9.4636 -5.7986 -22.5747 0.0000 -209.4885 14.6489 0.0000 -8.5889 0.0000 -0.0000 -168.5298 -141.4133 -0.0000 10.6057 0.0000 0.0000 -96.5926 25.8819 -4.1994 -2.6834 1.2502 0.0000 -22.9100 -124.3991 1.1826 -28.6741 1.9603 0.0000 0.0000 -67.0000 -4.1420 -21.8732 -11.0002 0.0000 0.0000 -67.0000 0.0181 -2.8771 0.3610 0.0000 0.0000 -67.0000 -0.0143 3.0072 0.2730 0.0000 0.0000 -67.0000 -3.0275 18.2564 9.5828 0.0000 0.0000 -67.0000 -14.2684 28.6053 27.9758 0.0000 -0.0000 -67.0000 -3.2649 23.9334 8.0043 
-41.1501 571.8890 -979.1560 -4.5807 12.1014 -58.0659 -0.0000 -16.7008 118.8322 0.3405 0.4186 4.7218 0.0000 11.8586 169.5859 -0.4173 2.1350 1.0956 52.5655 21.7612 17.9796 9.2705 -10.3268 12.0316 -0.0000 -111.4369 141.3570 -3.5708 2.8777 -9.7589 -0.0000 -172.4081 -79.8464 0.3021 -17.2600 -8.4141 0.0000 -209.8784 7.1457 10.6018 9.3042 0.3657 -0.0000 -64.9257 26.1658 -9.1615 1.3766 3.5953 -72.0304 21.1988 45.1223 -2.4249 -4.3791 -9.1352 0.0000 -111.4369 141.3570 -3.2929 9.2774 4.4064 0.0000 -172.4081 -79.8464 -0.4382 9.5412 12.8705 0.0000 -209.8784 7.1457 -3.6220 15.9277 -0.1294 0.0000 -64.9257 26.1658 21.6282 26.5266 -17.3664 0.0000 4.1879 119.9269 -4.5493 -19.7835 -12.3118 0.0000 -14.3102 88.8550 5.8503 5.5877 9.7489 0.0000 72.0997 53.8668 -5.7761 0.1921 -5.4372 0.0000 88.9597 -13.6445 1.9894 8.7465 -9.0109 -0.0000 19.3735 72.4546 3.9875 -24.4938 -28.4071 53.8125 60.5252 -5.8164 -12.2964 6.1211 1.2591 -34.2675 71.5323 -3.7862 2.2582 4.5357 6.0805 75.0000 -65.3041 -110.1607 10.7879 -8.2078 1.5058 0.0000 -209.4885 14.6489 -0.0000 26.6498 0.0000 0.0000 -168.5298 -141.4133 -0.0000 -19.5320 0.0000 0.0000 -96.5926 25.8819 -0.9808 54.6264 0.9952 -75.0000 -65.3041 -110.1607 8.8262 -4.7890 -23.2679 0.0000 -209.4885 14.6489 0.0000 -7.7060 -0.0000 -0.0000 -168.5298 -141.4133 0.0000 10.2121 0.0000 -0.0000 -96.5926 25.8819 -4.1737 -3.7512 1.1632 -0.0000 -22.9100 -124.3991 1.2313 -28.6285 2.0430 -0.0000 0.0000 -67.0000 -4.2155 -21.9809 -11.1401 0.0000 -0.0000 -67.0000 0.0017 -3.0554 0.0321 0.0000 0.0000 -67.0000 0.0278 2.7089 -0.5877 0.0000 0.0000 -67.0000 -3.0519 18.2113 9.6815 0.0000 -0.0000 -67.0000 -14.2922 28.3614 28.2040 -0.0000 -0.0000 -67.0000 -3.2818 23.7063 8.1169 
-47.9863 571.4380 -972.8150 -4.5149 11.3838 -57.4248 0.0000 -16.7008 118.8322 0.4322 0.5100 4.6704 -0.0000 11.8586 169.5859 -0.5173 2.1283 1.2115 53.0718 21.7986 17.8234 8.8305 -10.1929 12.2796 0.0000 -111.4369 141.3570 -4.5294 3.9193 -9.8286 0.0000 -172.4081 -79.8464 0.3038 -16.6738 -8.4937 0.0000 -209.8784 7.1457 9.9221 9.2625 0.3424 0.0000 -64.9257 26.1658 -8.5255 0.4043 3.1967 -71.1731 22.5483 43.5789 -5.0932 -6.7098 -8.1329 -0.0000 -111.4369 141.3570 -0.6048 12.0735 3.6988 0.0000 -172.4081 -79.8464 -0.7898 5.0776 23.8538 0.0000 -209.8784 7.1457 -0.7157 23.2799 -0.0269 0.0000 -64.9257 26.1658 30.7731 47.3421 -31.4025 0.0000 4.1879 119.9269 -5.1269 -19.8406 -12.0574 0.0000 -14.3102 88.8550 6.0200 5.7277 9.6783 0.0000 72.0997 53.8668 -5.7679 0.1072 -5.5103 -0.0000 88.9597 -13.6445 1.8212 8.6818 -9.4579 0.0000 19.3735 72.4546 4.3244 -24.7360 -27.4523 53.9281 60.8202 -5.7570 -11.8799 5.5030 1.2861 -33.7574 71.8880 -3.9205 3.1182 4.6235 5.9870 75.0000 -65.3041 -110.1607 10.1170 -9.9304 3.1071 -0.0000 -209.4885 14.6489 0.0000 27.2205 -0.0000 0.0000 -168.5298 -141.4133 0.0000 -25.1711 -0.0000 -0.0000 -96.5926 25.8819 -1.0803 56.8571 1.1079 -75.0000 -65.3041 -110.1607 7.8859 -3.8383 -23.8829 -0.0000 -209.4885 14.6489 0.0000 -6.8373 0.0000 0.0000 -168.5298 -141.4133 -0.0000 10.0399 0.0000 0.0000 -96.5926 25.8819 -4.1198 -4.8912 1.0641 0.0000 -22.9100 -124.3991 1.2505 -28.8261 2.0653 -0.0000 0.0000 -67.0000 -4.2135 -22.0740 -11.0916 0.0000 0.0000 -67.0000 -0.0111 -3.2025 -0.1995 0.0000 0.0000 -67.0000 0.0502 2.3494 -1.2247 -0.0000 -0.0000 -67.0000 -3.0168 18.0583 9.6490 -0.0000 0.0000 -67.0000 -14.3062 28.3035 28.2730 0.0000 0.0000 -67.0000 -3.2336 23.5248 8.0563 
-54.5704 571.3550 -966.4050 -4.3450 10.6097 -56.8593 -0.0000 -16.7008 118.8322 0.3457 0.6017 4.6486 -0.0000 11.8586 169.5859 -0.5711 2.0095 1.4443 53.0789 21.9815 18.1780 8.0220 -9.9075 12.8402 0.0000 -111.4369 141.3570 -5.0436 4.7941 -10.1633 -0.0000 -172.4081 -79.8464 0.3157 -16.0972 -8.8582 0.0000 -209.8784 7.1457 9.1432 9.4009 0.3160 0.0000 -64.9257 26.1658 -7.9081 -0.6650 2.8133 -70.8571 23.4461 41.5799 -8.1098 -9.4612 -7.6560 -0.0000 -111.4369 141.3570 3.2507 14.6235 3.5709 -0.0000 -172.4081 -79.8464 -0.9881 -0.4494 30.4262 0.0000 -209.8784 7.1457 7.5257 30.6230 0.3029 0.0000 -64.9257 26.1658 33.7744 56.0270 -35.8645 0.0000 4.1879 119.9269 -5.5548 -19.7232 -11.9400 0.0000 -14.3102 88.8550 6.2689 5.7511 9.7601 0.0000 72.0997 53.8668 -5.9238 0.0242 -5.5546 -0.0000 88.9597 -13.6445 1.5984 8.6847 -10.0702 0.0000 19.3735 72.4546 4.6023 -25.1874 -26.3980 54.2227 61.1617 -5.7943 -11.7670 5.9099 1.1423 -33.5148 72.1454 -3.6913 3.4029 4.8257 6.0151 75.0000 -65.3041 -110.1607 9.6295 -11.6972 5.2644 0.0000 -209.4885 14.6489 0.0000 26.9857 -0.0000 -0.0000 -168.5298 -141.4133 0.0000 -30.0292 0.0000 0.0000 -96.5926 25.8819 -1.2895 57.7354 1.3275 -75.0000 -65.3041 -110.1607 6.8286 -2.9299 -24.4289 -0.0000 -209.4885 14.6489 -0.0000 -6.1108 -0.0000 0.0000 -168.5298 -141.4133 -0.0000 10.2154 0.0000 0.0000 -96.5926 25.8819 -4.0324 -6.0759 0.9555 -0.0000 -22.9100 -124.3991 1.1766 -29.2496 1.9244 0.0000 0.0000 -67.0000 -4.1625 -22.1852 -10.9091 -0.0000 0.0000 -67.0000 -0.0227 -3.3153 -0.3933 0.0000 0.0000 -67.0000 0.0625 1.9797 -1.8098 -0.0000 0.0000 -67.0000 -2.9637 17.9932 9.5145 0.0000 0.0000 -67.0000 -14.1938 28.4382 27.9735 0.0000 -0.0000 -67.0000 -3.1383 23.2718 7.9008 
